# xmcd
#
# Track frame offsets:
#	150
#	15626
#	32670
#	51819
#	64371
#	80718
#	96704
#	113114
#	128367
#	147617
#	161606
#	171600
#	191995
#	203585
#
# Disc length: 2887 seconds
# Revision: 0
# Processed by: cddbd v1.5.2PL0 Copyright (c) Steve Scherf et al.
# Submitted via: dBpowerAMP V12.0
#
DISCID=d10b450e
DTITLE=The Ozark Mountain Daredevils - Don't Look Down
DYEAR=1977
DGENRE=Bluegrass
TTITLE0=River To The Sun
TTITLE1=Crazy Lovin'
TTITLE2=Giving It All To The Wind
TTITLE3=The Fox
TTITLE4=Backroads
TTITLE5=Snowbound
TTITLE6=Following The Way That I Feel
TTITLE7=Love Makes The Lover
TTITLE8=True Believer
TTITLE9=Moon On The Rise
TTITLE10=Stinghead
TTITLE11=Sweetwood (Bonus Track)
TTITLE12=Plainity (Bonus Track)
TTITLE13=Valencia Road (Bonus Track)
EXTD=
EXTT0=
EXTT1=
EXTT2=
EXTT3=
EXTT4=
EXTT5=
EXTT6=
EXTT7=
EXTT8=
EXTT9=
EXTT10=
EXTT11=
EXTT12=
EXTT13=
PLAYORDER=
